<svg width="1366" height="514" viewBox="0 0 1366 514" fill="none" xmlns="http://www.w3.org/2000/svg">
<rect width="1366" height="514" fill="white"/>
<path d="M0 257L45.5333 274.187C91.0667 290.731 182.133 326.069 273.2 308.4C364.267 290.731 455.333 223.269 546.4 179.9C637.467 136.531 728.533 120.469 819.6 179.9C910.667 239.331 1001.73 377.469 1092.8 402.687C1183.87 428.869 1274.93 342.131 1320.47 299.887L1366 257V0H1320.47C1274.93 0 1183.87 0 1092.8 0C1001.73 0 910.667 0 819.6 0C728.533 0 637.467 0 546.4 0C455.333 0 364.267 0 273.2 0C182.133 0 91.0667 0 45.5333 0H0V257Z" fill="#015C92"/>
</svg>
